<svg height="492pt" viewBox="-34 0 492 492.64264" width="492pt" xmlns="http://www.w3.org/2000/svg"><path d="m212.25 8c112.429688 0 203.929688 87.308594 203.929688 194.960938 0 151.308593-203.929688 281.679687-203.929688 281.679687s-203.929688-130.371094-203.929688-281.679687c0-107.652344 91.5-194.960938 203.929688-194.960938zm148.890625 200.328125c-.003906-82.226563-66.667969-148.882813-148.894531-148.878906-82.230469.003906-148.886719 66.664062-148.886719 148.894531.003906 82.226562 66.664063 148.886719 148.890625 148.886719 82.234375 0 148.898438-66.667969 148.890625-148.902344zm0 0" fill="#00acea"/><path d="m189.511719 286.230469 46.230469.429687 45.777343.417969v-102.058594h22.371094l-91.519531-79.460937-91.761719 79.460937h20.742187v100.761719zm22.738281-226.789063c82.238281-.007812 148.910156 66.65625 148.910156 148.894532.003906 82.238281-66.664062 148.90625-148.902344 148.902343-82.238281 0-148.902343-66.671875-148.898437-148.910156 0-82.226563 66.664063-148.886719 148.890625-148.886719zm0 0" fill="#00efd1"/><path d="m303.890625 185.019531h-183.28125l91.761719-79.460937zm0 0" fill="#fedb41"/><path d="m281.519531 185.019531v102.058594l-45.777343-.417969v-51.390625h-46.230469v50.960938l-48.160157-.449219v-100.761719zm0 0" fill="#00acea"/><path d="m235.742188 286.609375v.050781l-46.230469-.429687v-50.960938h46.230469zm0 0" fill="#fedb41"/><g fill="#083863"><path d="m212.25 0c-116.859375 0-211.929688 91.046875-211.929688 202.960938 0 35.921874 11.074219 73.539062 32.917969 111.8125 17.261719 30.242187 41.269531 61 71.363281 91.398437 51.023438 51.546875 101.230469 83.859375 103.339844 85.210937 2.628906 1.679688 5.992188 1.679688 8.617188 0 2.113281-1.351562 52.320312-33.664062 103.34375-85.210937 30.09375-30.398437 54.101562-61.152344 71.363281-91.398437 21.839844-38.273438 32.914063-75.890626 32.914063-111.8125 0-111.914063-95.070313-202.960938-211.929688-202.960938zm165.203125 306.699219c-16.535156 29-39.648437 58.609375-68.703125 87.992187-29.609375 29.710938-61.914062 56.609375-96.5 80.34375-34.582031-23.734375-66.886719-50.632812-96.5-80.34375-29.050781-29.382812-52.167969-58.988281-68.699219-87.992187-20.390625-35.777344-30.730469-70.679688-30.730469-103.738281 0-103.089844 87.894532-186.960938 195.929688-186.960938 108.039062 0 195.929688 83.871094 195.929688 186.960938 0 33.058593-10.335938 67.960937-30.726563 103.738281zm0 0"/><path d="m212.25 51.441406c-86.507812 0-156.890625 70.378906-156.890625 156.886719 0 86.511719 70.382813 156.902344 156.890625 156.902344 86.511719 0 156.890625-70.386719 156.890625-156.902344 0-86.511719-70.378906-156.886719-156.890625-156.886719zm0 297.789063c-77.6875 0-140.890625-63.207031-140.890625-140.902344 0-77.691406 63.203125-140.886719 140.890625-140.886719s140.890625 63.199219 140.890625 140.886719c0 77.691406-63.203125 140.902344-140.890625 140.902344zm0 0"/><path d="m217.617188 99.519531c-3.007813-2.609375-7.472657-2.613281-10.484376-.007812l-91.757812 79.460937c-2.53125 2.25-3.425781 5.816406-2.257812 8.992188 1.148437 3.164062 4.132812 5.292968 7.5 5.355468h12.632812v92.460938c.015625 4.421875 3.554688 8.027344 7.976562 8.121094l140.226563 1.417968h.070313c2.085937-.046874 4.066406-.921874 5.5-2.4375 1.480468-1.5625 2.285156-3.648437 2.234374-5.800781v-93.761719h14.640626c3.359374-.070312 6.332031-2.191406 7.492187-5.34375 1.15625-3.152343.265625-6.695312-2.246094-8.921874zm-5.253907 16.929688 70.109375 60.871093h-140.398437zm14.886719 162.132812-30-.28125v-34.980469h30zm46 .425781-30-.277343v-43.460938c0-4.417969-3.089844-7.949219-7.507812-7.949219h-46.230469c-4.460938-.042968-8.132813 3.492188-8.261719 7.949219v42.882813l-32-.300782v-84.53125h124zm0 0"/></g></svg>